<svg width="70" height="105" viewBox="0 0 70 105" fill="none" xmlns="http://www.w3.org/2000/svg">
<g clip-path="url(#clip0_43_11123)">
<g clip-path="url(#clip1_43_11123)">
<g clip-path="url(#clip2_43_11123)">
<path d="M35.9934 0.858398C18.9265 0.858398 19.992 8.29047 19.992 8.29047L20.011 15.9903H36.2977V18.3021H13.5423C13.5423 18.3021 2.62109 17.0583 2.62109 34.3504C2.62109 51.6431 12.1533 51.0299 12.1533 51.0299H17.8421V43.0054C17.8421 43.0054 17.5354 33.4334 27.2222 33.4334H43.3757C43.3757 33.4334 52.4512 33.5807 52.4512 24.6257V9.81918C52.4512 9.81918 53.8296 0.858398 35.9934 0.858398ZM27.0129 6.0364C27.3978 6.03605 27.7789 6.11192 28.1346 6.25965C28.4902 6.40739 28.8133 6.62409 29.0855 6.89737C29.3576 7.17064 29.5734 7.49512 29.7206 7.85224C29.8677 8.20935 29.9433 8.5921 29.9429 8.97857C29.9433 9.36502 29.8677 9.74781 29.7206 10.1049C29.5734 10.462 29.3576 10.7865 29.0855 11.0597C28.8133 11.3331 28.4902 11.5497 28.1346 11.6975C27.7789 11.8452 27.3978 11.9211 27.0129 11.9207C26.628 11.9211 26.2469 11.8452 25.8913 11.6975C25.5356 11.5497 25.2125 11.3331 24.9404 11.0597C24.6682 10.7865 24.4524 10.462 24.3053 10.1049C24.1582 9.74781 24.0826 9.36502 24.083 8.97857C24.0826 8.5921 24.1582 8.20935 24.3053 7.85224C24.4524 7.49512 24.6682 7.17064 24.9404 6.89737C25.2125 6.62409 25.5356 6.40739 25.8913 6.25965C26.2469 6.11192 26.628 6.03605 27.0129 6.0364Z" fill="#585858"/>
<path d="M36.476 68.0159C53.5429 68.0159 52.4772 60.5838 52.4772 60.5838L52.4583 52.8842H36.1714V50.5726H58.9268C58.9268 50.5726 69.848 51.8163 69.848 34.5236C69.848 17.2312 60.3158 17.8445 60.3158 17.8445H54.6269V25.8687C54.6269 25.8687 54.9336 35.4406 45.2469 35.4406H29.0933C29.0933 35.4406 20.0179 35.2934 20.0179 44.2487V59.0555C20.0179 59.0555 18.6401 68.0159 36.476 68.0159ZM45.4564 62.8385C45.0715 62.8388 44.6904 62.763 44.3347 62.6152C43.9791 62.4675 43.6559 62.2508 43.3839 61.9775C43.1117 61.7043 42.8959 61.3798 42.7488 61.0226C42.6017 60.6655 42.5261 60.2828 42.5264 59.8963C42.526 59.5098 42.6016 59.1271 42.7487 58.7699C42.8958 58.4127 43.1116 58.0882 43.3837 57.8149C43.6559 57.5416 43.979 57.3249 44.3347 57.1771C44.6903 57.0294 45.0715 56.9535 45.4564 56.9538C45.8412 56.9535 46.2224 57.0294 46.5781 57.1771C46.9337 57.3248 47.2568 57.5415 47.529 57.8148C47.8011 58.0881 48.0169 58.4126 48.164 58.7697C48.3111 59.1268 48.3867 59.5095 48.3864 59.896C48.3867 60.2825 48.3111 60.6652 48.164 61.0223C48.0169 61.3795 47.8011 61.704 47.529 61.9773C47.2568 62.2505 46.9337 62.4672 46.5781 62.6149C46.2224 62.7626 45.8412 62.8388 45.4564 62.8385Z" fill="#9C9C9C"/>
</g>
</g>
</g>
<path d="M1.12541 97.8389V85.2389H5.28341C5.96141 85.2389 6.57041 85.4039 7.11041 85.7339C7.65641 86.0639 8.08841 86.5109 8.40641 87.0749C8.73041 87.6329 8.89241 88.2569 8.89241 88.9469C8.89241 89.6489 8.72741 90.2819 8.39741 90.8459C8.07341 91.4039 7.63541 91.8479 7.08341 92.1779C6.53741 92.5019 5.93741 92.6639 5.28341 92.6639H2.63741V97.8389H1.12541ZM2.63741 91.1519H5.14841C5.55641 91.1519 5.92841 91.0529 6.26441 90.8549C6.60641 90.6509 6.87641 90.3779 7.07441 90.0359C7.27841 89.6879 7.38041 89.2979 7.38041 88.8659C7.38041 88.4279 7.27841 88.0379 7.07441 87.6959C6.87641 87.3479 6.60641 87.0749 6.26441 86.8769C5.92841 86.6729 5.55641 86.5709 5.14841 86.5709H2.63741V91.1519ZM17.8298 85.2389H19.6118L15.3458 92.1419V97.8389H13.8338V92.1419L9.56783 85.2389H11.3498L14.5898 90.4859L17.8298 85.2389ZM30.7658 85.2389V86.7509H26.5718V97.8389H25.0598V86.7509H20.8748V85.2389H30.7658ZM40.3217 85.2389H41.8337V97.8389H40.3217V91.8449H34.0847V97.8389H32.5727V85.2389H34.0847V90.3329H40.3217V85.2389ZM49.8485 98.0729C48.9965 98.0729 48.1955 97.9049 47.4455 97.5689C46.6955 97.2269 46.0355 96.7559 45.4655 96.1559C44.8955 95.5559 44.4485 94.8629 44.1245 94.0769C43.8005 93.2849 43.6385 92.4389 43.6385 91.5389C43.6385 90.6389 43.8005 89.7959 44.1245 89.0099C44.4485 88.2179 44.8955 87.5219 45.4655 86.9219C46.0355 86.3219 46.6955 85.8539 47.4455 85.5179C48.1955 85.1759 48.9965 85.0049 49.8485 85.0049C50.7065 85.0049 51.5105 85.1759 52.2605 85.5179C53.0105 85.8539 53.6705 86.3219 54.2405 86.9219C54.8105 87.5219 55.2545 88.2179 55.5725 89.0099C55.8965 89.7959 56.0585 90.6389 56.0585 91.5389C56.0585 92.4389 55.8965 93.2849 55.5725 94.0769C55.2545 94.8629 54.8105 95.5559 54.2405 96.1559C53.6705 96.7559 53.0105 97.2269 52.2605 97.5689C51.5105 97.9049 50.7065 98.0729 49.8485 98.0729ZM49.8485 96.5609C50.5025 96.5609 51.1115 96.4289 51.6755 96.1649C52.2455 95.9009 52.7435 95.5379 53.1695 95.0759C53.6015 94.6079 53.9375 94.0739 54.1775 93.4739C54.4235 92.8679 54.5465 92.2229 54.5465 91.5389C54.5465 90.8549 54.4235 90.2099 54.1775 89.6039C53.9315 88.9919 53.5925 88.4579 53.1605 88.0019C52.7345 87.5399 52.2365 87.1769 51.6665 86.9129C51.1025 86.6489 50.4965 86.5169 49.8485 86.5169C49.1945 86.5169 48.5825 86.6489 48.0125 86.9129C47.4485 87.1769 46.9505 87.5429 46.5185 88.0109C46.0925 88.4729 45.7565 89.0069 45.5105 89.6129C45.2705 90.2129 45.1505 90.8549 45.1505 91.5389C45.1505 92.2289 45.2735 92.8769 45.5195 93.4829C45.7655 94.0889 46.1015 94.6229 46.5275 95.0849C46.9595 95.5469 47.4575 95.9099 48.0215 96.1739C48.5915 96.4319 49.2005 96.5609 49.8485 96.5609ZM57.8324 97.8389V85.2389H59.4704L65.7614 95.1029V85.2389H67.2734V97.8389H65.6444L59.3444 87.9749V97.8389H57.8324Z" fill="#121212"/>
<defs>
<clipPath id="clip0_43_11123">
<rect width="67.4081" height="67.4081" fill="white" transform="translate(2.57324 0.838867)"/>
</clipPath>
<clipPath id="clip1_43_11123">
<rect width="67.4081" height="67.4081" fill="white" transform="translate(2.57324 0.838867)"/>
</clipPath>
<clipPath id="clip2_43_11123">
<rect width="67.4081" height="67.4081" fill="white" transform="translate(2.57324 0.838867)"/>
</clipPath>
</defs>
</svg>
